<?xml version="1.0" encoding="UTF-8"?>
<svg id="Capa_1" xmlns="http://www.w3.org/2000/svg" version="1.1" viewBox="0 0 1025.04 703.92">
  <!-- Generator: Adobe Illustrator 29.5.0, SVG Export Plug-In . SVG Version: 2.1.0 Build 137)  -->
  <defs>
    <style>
      .st0 {
        fill: #90caf9;
      }

      .st1 {
        fill: #9ba6b3;
      }

      .st2, .st3 {
        fill: #fff;
      }

      .st4 {
        fill: #5c5c5e;
      }

      .st3, .st5 {
        display: none;
      }

      .st6 {
        fill: #dfae37;
      }

      .st7 {
        fill: #59595b;
      }

      .st5, .st8 {
        fill: #fefefe;
      }

      .st9 {
        fill: #58585a;
      }

      .st10 {
        fill: #5c5c5f;
      }
    </style>
  </defs>
  <path class="st3" d="M0,619.47V0h1025.04v83.01l-.44-.76c-4.68-46.31-52.83-70.89-94.08-78.18-37.41-6.61-75.47-4.52-111.71,6.36-30.14,9.05-61.74,20.48-90.8,32.53-11.9,4.94-40.46,16.44-48.48,25.42-4.37,4.89,2.57,4.19,5.85,3.45,8.2-1.84,17.67-6.06,25.93-8.62,73.88-22.95,158.4-43.52,235.52-25.55,11.02,2.57,20.53,4.92,29.27,12.48,38.29,33.12,4.68,87.92-17.66,120.07-44.69,64.32-109.44,117.05-172.39,162.8l-1.69-8.63,69.36-54.46c15.26-15.18,32.57-34.22,37.87-55.7,13.9-56.35-63.25-46.03-96.03-40.36-27.55,4.77-55.34,12.78-78.3,29.07-20.84-22.17-44.27-41.71-70.71-56.95-137.52-79.3-309.5-32.64-391.93,100.71-56.99,92.19-59.27,205.42-9.65,301.31.7,1.35,4.9,7.64,4.07,8.61-17.13,4.82-33.8,12.65-50.85,17.53-20.52,5.88-61.68,13.87-82.17,10.67-8.07-1.26-15.77-4.49-12.46-14.12,2.38-6.91,18.75-25.34,24.32-31.83,20.64-24.05,43.19-46.52,67.46-66.91,2.52-9.43-5.14-7.75-10.74-4.5-8.66,5.04-19.62,13.15-27.83,19.2-23.01,16.95-49.04,40.68-65.5,64.06-11.51,16.35-19.51,38.58.24,52.37,20.19,14.09,36.99,10.7,60.37,8.24,39.46-4.15,78.48-13.55,115.76-26.79l8.3,10.48c-14.89,6.66-33.05,12.17-48.7,17.28-29.3,9.58-59.81,18.74-89.98,25.19-27.91,5.97-55.31,10.94-83.51,3.84-58.24-14.66.17-84.65,19.01-109.12,20.92-27.16,40.43-48.51,65.23-72.01,14.59-13.83,27.6-29.39,42-43.41.77-1.08.42-2.52.47-3.79-.73-2.94-9.4,4.41-10.53,5.25-23.88,17.81-48.35,38.17-70.6,58C62.07,509.45,4.34,567.2.96,619.47h-.96Z"/>
  <path class="st3" d="M1020.48,95.01v608.91h-504.36v-.48c146.99-5.47,269.64-138.24,274.04-283.32v-28.35l-1.46-19.41s-.09-.68.34-.96c53.69-35.65,103.54-78.39,146.75-126.19,31.68-35.05,76.39-93.62,83.59-140.98.47-3.07.4-6.23,1.1-9.22Z"/>
  <path class="st6" d="M1025.04,83.01v12c-.7,2.99-.63,6.14-1.1,9.22-7.21,47.36-51.91,105.93-83.59,140.98-43.21,47.8-93.06,90.54-146.75,126.19-.43.29-.3.94-.34.96-6.38,3.91-12.86,7.89-19.2,12-141.18,91.5-290.84,171.36-447.26,234.16-6.47,2.6-13.03,5.01-19.48,7.66l-1.16.98-1.44.48c-45.63,17.31-91.71,34.02-139.06,46.41-46.86,12.25-106.29,26.89-146.47-8.98-1.03-.92-2.23-2.29-3.36-3.36-.87-.82-1.19-1.55-2.4-2.4l-.96-1.44c-1.18-2.4-3.47-4.83-4.88-7.36-4.29-7.68-6.16-14.57-6.64-23.35-.16-3.06-.2-4.58,0-7.68,3.38-52.27,61.11-110.02,98.37-143.24,22.25-19.83,46.72-40.19,70.6-58,1.12-.84,9.8-8.19,10.53-5.25-.06,1.27.3,2.7-.47,3.79-14.41,14.02-27.41,29.59-42,43.41-24.8,23.5-44.31,44.86-65.23,72.01-18.84,24.46-77.25,94.46-19.01,109.12,28.2,7.1,55.6,2.13,83.51-3.84,30.17-6.45,60.68-15.61,89.98-25.19,15.65-5.12,33.81-10.62,48.7-17.28,6.28-2.81,19.18-7.28,25.81-9.12,39.39-10.92,66.48-22.51,104.08-38.78,124.62-53.92,241.06-125.93,356.19-197.1,2.2-1.36,4.16-3.13,6.28-4.52,6.12-4.02,11.85-8.18,17.76-12.48,62.95-45.74,127.7-98.48,172.39-162.8,22.34-32.15,55.94-86.95,17.66-120.07-8.74-7.56-18.26-9.91-29.27-12.48-77.12-17.97-161.64,2.6-235.52,25.55-8.26,2.57-17.73,6.78-25.93,8.62-3.28.74-10.22,1.44-5.85-3.45,8.02-8.98,36.58-20.49,48.48-25.42,29.05-12.05,60.66-23.48,90.8-32.53,36.24-10.89,74.3-12.98,111.71-6.36,41.26,7.29,89.4,31.87,94.08,78.18l.44.76h0Z"/>
  <path class="st3" d="M.96,627.15c.47,8.79,2.34,15.67,6.64,23.35,1.41,2.52,3.7,4.96,4.88,7.36.13.25-.2,1.12.05,1.4.18.2.8-.04.91.04,1.21.85,1.53,1.58,2.4,2.4-.07,2.12,1.26,3.43,3.36,3.36,40.18,35.87,99.61,21.24,146.47,8.98,47.36-12.38,93.43-29.1,139.06-46.41l2.4.48c1.08.98,2.23,1.95,3.36,2.88v1.44h1.44c46.48,40.2,109.25,68.37,171.32,71.02v.48H0v-76.77h.96Z"/>
  <path class="st0" d="M793.25,372.35l1.46,19.41v28.35c-4.39,145.09-127.05,277.86-274.04,283.32-3.59.13-7.61-.5-11.04.48h-12c-2.31-.89-5.56-.47-8.16-.48-2.07,0-4.18.09-6.24,0-62.07-2.65-124.84-30.81-171.32-71.02-.27-.78-.91-1-1.44-1.44-1.13-.93-2.28-1.9-3.36-2.88-.27-.25-.42-.84-.96-.96l1.16-.98c6.45-2.65,13.01-5.06,19.48-7.66,5.59,5.07,11.62,9.56,17.76,13.92,2.49,1.77,4.71,4.21,7.68,5.28,9.61,7.3,20.41,12.87,31.19,18.23,7.34,3.65,14.37,7.1,22.07,10.08,35.67,13.76,74.4,19.77,112.65,17.39,1.19-.51,5.64-7.15,7.07-8.76,16.37-18.42,41.69-33.22,63.9-43.59,35.93-16.78,74.46-27.05,112.93-36.31,24.76-27.02,44.49-59.44,56.17-94.27.17-.18.81-.27.84-.81,2.33-7.71,4.84-15.37,6.83-23.18,5.84-22.94,8.6-46.14,9.14-69.79l-.98-22.34c6.34-4.11,12.82-8.08,19.2-12h0ZM687.2,609.88c-44.49,11.31-92.2,25.46-130.2,51.91-8.14,5.66-16.69,12.37-22.88,20.06.87.63,14.13-1.75,16.33-2.14,50.96-9.13,99.63-34.04,136.76-69.82h-.01Z"/>
  <path class="st2" d="M.96,619.47c-.2,3.1-.16,4.62,0,7.68h-.96v-7.68h.96Z"/>
  <path class="st1" d="M520.68,703.44v.48h-11.04c3.42-.98,7.44-.35,11.04-.48Z"/>
  <path class="st10" d="M497.64,703.92h-8.16v-.48c2.6,0,5.84-.41,8.16.48Z"/>
  <path class="st1" d="M489.49,703.44v.48h-6.24v-.48c2.06.09,4.17,0,6.24,0Z"/>
  <path class="st0" d="M786.06,333.01c-5.91,4.29-11.63,8.46-17.76,12.48l-1.92-8.64-1.09.09-242.67,134.99-13.12,6.55-221.52,98.57,8.01,10.58c-6.64,1.84-13.76,4.55-20.04,7.37l-8.3-10.48c-37.27,13.25-76.29,22.65-115.76,26.79-23.39,2.46-40.18,5.85-60.37-8.24-19.75-13.78-11.75-36.02-.24-52.37,16.47-23.38,42.49-47.11,65.5-64.06,8.21-6.05,19.17-14.16,27.83-19.2,5.6-3.26,13.25-4.93,10.74,4.5-24.27,20.38-46.82,42.86-67.46,66.91-5.57,6.49-21.94,24.91-24.32,31.83-3.31,9.63,4.38,12.85,12.46,14.12,20.49,3.2,61.65-4.79,82.17-10.67,17.05-4.88,33.71-12.71,50.85-17.53.83-.97-3.37-7.26-4.07-8.61-49.63-95.89-47.34-209.11,9.65-301.31,82.43-133.35,254.41-180.01,391.93-100.71,26.43,15.24,49.87,34.78,70.71,56.95,22.97-16.29,50.76-24.3,78.3-29.07,32.78-5.67,109.93-15.99,96.03,40.36-5.3,21.48-22.61,40.52-37.87,55.7l-69.36,54.46,1.69,8.63h0ZM281.21,243.28c-2.01,2.86-4.86,5.64-5.76,9.12-.45.04-.6,0-.96.34-1.32,1.18-6.45,10.49-7.76,12.77-2.77,4.81-5.14,9.75-7.6,14.72-4.05,8.21-7.31,15.97-10.56,24.47-15.43,40.45-20.8,78.6-17.76,121.88.11,1.57-.14,3.23,0,4.8,1.58,17.98,5.16,35.49,10.08,52.78,1.1,3.86,2.09,7.71,3.36,11.52,6.16,18.53,14.53,36.21,24.06,53.19.98.62,5.97-1.38,7.38-1.84,106.74-34.65,203.99-88.23,304.97-136.03l177-101.57c-5.06-15.84-12.69-31.63-21.05-45.99-2.35-4.03-5.2-7.72-7.68-11.52-.17-.26-.18-1.04-.55-1.59-9.46-14.31-20.25-28.2-32.56-40.16-12.91,51.99-59.65,89.74-103.22,116.8-49.15,30.52-106.44,54.32-161.43,72.26-21.11,6.89-47.52,15.71-69.26,19.03-3.11.48-10.19,2.25-9.68-2.92.33-3.33,2.8-2.17,4.47-2.39,16.09-2.09,34.93-7.97,50.6-12.64,34.57-10.31,69.62-23.02,102.65-37.47,61.13-26.74,151.88-75.43,176.28-141.39,1.12-3.04,5.18-14.59,4.06-17.03-.57-1.23-8.63-8.36-10.3-9.85-26.11-23.21-56.83-40.58-89.75-52.06-8.33-2.91-16.31-5.59-24.95-7.68-12.49-3.02-25.09-5.09-37.91-6.24-3.32-.3-6.76-.78-10.08-.96-16.45-.9-34.21-.17-50.56,1.99-5.08.67-10.14,1.67-15.18,2.58-1,.53-2.56,6.17-3.28,7.75-18.33,40.15-67.97,59.98-110.15,54.79-2.44-.3-10.22-2.35-11.82-1.6-17.23,14.66-32.16,31.64-45.12,50.14h.02ZM439.09,134.84c-36.95,8.97-71.76,25.95-101.72,49.18.46.79,1.02.58,1.67.72,24.17,5.28,54.43-4.38,74.01-18.61,10.72-7.79,21.5-18.72,26.04-31.29h0ZM773.58,294.62c27.73-15.14,51.97-38.19,73.18-61.41,5.73-6.27,15.8-16.74,20.12-23.55,2.98-4.7,2.12-8.06-2.91-10.47-11.78-5.64-41.72-2.49-55.05-.46-26.14,3.99-51.44,12.56-75.18,23.92l13.16,19.23c10.45,16.69,20.11,34.1,26.68,52.74h0Z"/>
  <path class="st2" d="M19.2,665.05c-2.1.07-3.43-1.24-3.36-3.36,1.13,1.07,2.33,2.44,3.36,3.36Z"/>
  <path class="st2" d="M306.17,627.15c.54.12.69.71.96.96l-2.4-.48,1.44-.48h0Z"/>
  <path class="st2" d="M13.44,659.3c-.11-.08-.73.16-.91-.04-.25-.28.08-1.14-.05-1.4l.96,1.44Z"/>
  <path class="st2" d="M311.93,632.42h-1.44v-1.44c.53.44,1.17.66,1.44,1.44Z"/>
  <path class="st7" d="M765.9,476.48c-1.99,7.81-4.5,15.47-6.83,23.18-.04.54-.67.63-.84.81-7.56,8.26-22.38,18.84-31.72,25.62-52.28,37.93-111.98,67.13-170.3,94.58-6.78,2.13-10.91-6.25-4.66-9.93,48.39-22.63,96.88-46.65,141.86-75.52,26.43-16.97,49.68-33.95,70.67-57.45.55-.62.74-1.33,1.83-1.29h-.01Z"/>
  <path class="st7" d="M405.51,666.01c-7.7-2.97-14.73-6.42-22.07-10.08,19.9-.49,39.91-2.39,58.67-9.24,4.09-1.49,9.74-5.96,13.76-2.48,2.27,1.97,2.1,6.41-.19,8.36-4.45,3.79-21.52,8.39-27.69,9.74l-22.47,3.69h0Z"/>
  <path class="st4" d="M352.24,637.7c-2.97-1.07-5.19-3.51-7.68-5.28,11.99.52,23.85-1.6,35.52-4.07,14.71-3.12,29.26-7.51,43.55-12.11,3.76-1.21,10.51-4.39,13.92-4.84,2.52-.33,3.71,3.63,2.23,4.66-28.41,9.73-57.39,19.15-87.53,21.64h-.01Z"/>
  <path class="st8" d="M602.26,195.77l10.08,12.96c-.24.26-2.46,4.71-2.64,5.28-4.82,15.18,14.9,25.72,24.7,13.66,10.31-12.69-5.09-29.3-18.22-21.82-2.7-5-7.75-8.79-10.08-13.92,9.16-11.05-2.68-27.85-16.79-22.31-14.78,5.81-9.6,29.43,7.38,27.53.6-.07,5.33-1.23,5.57-1.39h0Z"/>
  <path class="st9" d="M590.26,142.51c-17.66,27.47-44.27,49.47-70.87,68.05-40.83,28.51-88.53,52.53-135.36,69.54-42.95,15.6-89.32,27.59-135.45,24.59,3.24-8.5,6.51-16.26,10.56-24.47,40.16.4,80.31-10.41,117.69-24.11,38.53-14.12,77.58-33.29,112.13-55.34,28.12-17.95,56.16-39.16,76.34-65.94,8.64,2.09,16.62,4.77,24.95,7.68h0Z"/>
  <path class="st5" d="M773.58,294.62c-6.57-18.65-16.23-36.05-26.68-52.74l-13.16-19.23c23.74-11.36,49.04-19.93,75.18-23.92,13.33-2.03,43.26-5.19,55.05.46,5.03,2.41,5.89,5.77,2.91,10.47-4.32,6.81-14.39,17.28-20.12,23.55-21.22,23.22-45.45,46.28-73.18,61.41Z"/>
  <path class="st7" d="M736.63,263.43l-12.85,21.46c-38.98,56.76-121.68,103.6-183.25,132.5-85.95,40.34-182.06,72.5-277.29,79.26l-18.98-.98c-1.27-3.81-2.26-7.66-3.36-11.52,7.28.96,14.96,1.56,22.33,1.46,46.48-.61,102.08-15.31,146.47-29.16,78.9-24.61,164.94-61.99,232.53-109.62,34.63-24.4,70.26-54.91,86.71-94.92,2.48,3.8,5.33,7.49,7.68,11.52h.01Z"/>
  <path class="st7" d="M527.4,128.6c.11.97-.1,1.87-.32,2.8-5.15,22.45-47.77,52.01-66.91,64.1-45.56,28.78-118.33,61.48-172.98,58.36-3.39-.19-8.72-1.72-11.74-1.46.9-3.47,3.75-6.26,5.76-9.12,31.52,2.47,63.51-5.56,92.87-16.31,41.53-15.2,94.72-43.69,126.45-74.62,6.7-6.53,15.18-15.31,16.79-24.72,3.32.18,6.76.66,10.08.96h0Z"/>
  <path class="st9" d="M254.34,426.57c-.16.9-.15,3.88,0,4.8h-23.51c-.14-1.57.11-3.22,0-4.8h23.51Z"/>
  <path class="st0" d="M508.2,590.68c-.11-.22-1.4-4.53-1.44-4.8-2.76-18.28,23.71-23.38,28.1-6.27,3.51,13.67-12.42,23.75-23.26,14.62-.49-.41-3.26-3.28-3.4-3.56h0Z"/>
  <path class="st0" d="M717.43,470.24c-.22-.14-3.68-3.15-3.84-3.36s-1.89-4.34-2.06-4.9c-5.01-15.99,16.41-25.94,25.5-12.54,7.28,10.73-1.89,23.91-14.52,22.19-.51-.07-4.86-1.26-5.08-1.4h0Z"/>
  <path class="st0" d="M484.69,594.04c.21.37,1.88,4.54,1.92,4.8,2.86,16.38-21.23,23.76-27.59,8.15-6.96-17.09,17.34-27.66,25.67-12.95h0Z"/>
  <path class="st0" d="M668,517.74c.25.15,3.19,2.66,3.36,2.88,5.93,7.53,2.79,20.06-6.61,22.9-10.46,3.16-19.66-4.42-18.82-15.22.07-.88.67-4.16.96-4.8.22-.49,3.01-3.79,3.61-4.31,4.71-4.08,12.2-4.6,17.51-1.45h-.01Z"/>
  <path class="st0" d="M612.34,512.95c-.1,1.15-.92,3.74-1.44,4.8-9.04,18.38-37.36.94-23.98-15.58,8.85-10.93,26.73-3.77,25.42,10.78Z"/>
  <path class="st4" d="M713.59,466.88c.16.21,3.62,3.22,3.84,3.36l-46.07,50.38c-.17-.22-3.11-2.73-3.36-2.88l45.59-50.86h0Z"/>
  <path class="st4" d="M646.89,523.5c-.29.64-.89,3.92-.96,4.8l-35.03-10.56c.52-1.05,1.34-3.65,1.44-4.8l34.55,10.56Z"/>
  <path class="st10" d="M508.2,590.68l-21.59,8.16c-.04-.25-1.71-4.43-1.92-4.8l22.07-8.16c.04.27,1.33,4.58,1.44,4.8Z"/>
  <path class="st0" d="M275.46,415.54c.07.04.04.86.77,1.37.78.54,2.95,1.39,3.07,1.51,1.19,1.09,3.6,7.14,3.79,8.93,1.96,19.03-25.93,21.5-28.74,4.03-.15-.92-.16-3.89,0-4.8,1.09-6.24,7.82-11.95,14.16-12.03.72,0,6.65.82,6.96,1h0Z"/>
  <path class="st0" d="M542.75,230.32c.25.31,2.23,3.86,2.4,4.32,3.48,9.18-3.3,19.61-13.2,19.71-.65,0-5.27-.39-5.51-.52-.04-.02.08-.66-.16-.78-1.6-.85-2.74-1.34-4.16-2.58-10.19-8.91-3.02-25.61,10.33-24.97,3.18.15,8.3,2.34,10.31,4.82h-.01Z"/>
  <path class="st0" d="M351.28,332.53c0,.98-.24,4.02-.48,4.8-2.44,7.78-12.86,11.64-20.16,8.16-1.07-.51-3.49-2.46-4.32-3.36-6.71-7.27-4.1-19.31,5.15-22.92s19.78,3.02,19.81,13.33h0Z"/>
  <path class="st0" d="M606.1,191.93c-.38.46-3.6,3.69-3.84,3.84s-4.96,1.32-5.57,1.39c-16.98,1.9-22.16-21.72-7.38-27.53,14.11-5.54,25.96,11.26,16.79,22.31h0Z"/>
  <path class="st0" d="M612.34,208.73c.16-.18,3.61-2.75,3.84-2.88,13.14-7.48,28.53,9.13,18.22,21.82s-29.52,1.52-24.7-13.66c.18-.57,2.4-5.02,2.64-5.28h0Z"/>
  <path class="st0" d="M471.25,339.72c.23.08,4.11,2.24,4.32,2.4,4.86,3.77,6.06,12.37,3.6,17.75-5.87,12.81-26.92,9.32-27.11-6.24-.02-1.37.06-4.07.48-5.28,2.35-6.86,11.92-10.85,18.72-8.64h-.01Z"/>
  <path class="st4" d="M522.12,250.47c1.42,1.24,2.56,1.73,4.16,2.58.24.13.12.76.16.78l-50.87,88.29c-.21-.16-4.08-2.32-4.32-2.4l50.87-89.25h0Z"/>
  <path class="st4" d="M452.53,348.36c-.41,1.21-.5,3.91-.48,5.28l-101.26-16.31c.24-.78.48-3.82.48-4.8l101.26,15.83Z"/>
  <path class="st4" d="M330.64,345.48l-51.35,72.94c-.13-.12-2.3-.97-3.07-1.51-.73-.51-.7-1.33-.77-1.37l50.87-73.41c.83.9,3.24,2.85,4.32,3.36h0Z"/>
  <path class="st4" d="M545.15,234.64c-.17-.46-2.15-4.01-2.4-4.32l45.72-27.47,1.78-.15c.73,1.28,2.72,2.99,1.45,4.34l-46.55,27.59h0Z"/>
  <path class="st4" d="M616.18,205.85c-.23.13-3.67,2.7-3.84,2.88l-10.08-12.96c.24-.15,3.46-3.38,3.84-3.84,2.33,5.13,7.38,8.91,10.08,13.92Z"/>
</svg>