<?xml version="1.0" encoding="UTF-8"?>
<svg id="Capa_2" xmlns="http://www.w3.org/2000/svg" version="1.1" xmlns:xlink="http://www.w3.org/1999/xlink" viewBox="0 0 1024 723">
  <!-- Generator: Adobe Illustrator 29.5.0, SVG Export Plug-In . SVG Version: 2.1.0 Build 137)  -->
  <defs>
    <style>
      .st0 {
        stroke-width: 25px;
      }

      .st0, .st1, .st2, .st3, .st4, .st5, .st6, .st7, .st8 {
        fill: none;
      }

      .st0, .st1, .st2, .st3, .st4, .st5, .st6, .st7, .st8, .st9 {
        stroke-miterlimit: 10;
      }

      .st0, .st1, .st2, .st6, .st8, .st9 {
        stroke: #575759;
      }

      .st1, .st9 {
        stroke-width: 5px;
      }

      .st2, .st5, .st6 {
        stroke-width: 11px;
      }

      .st10 {
        fill: #dfae36;
      }

      .st3 {
        stroke-width: 6px;
      }

      .st3, .st5, .st6 {
        stroke-linecap: round;
      }

      .st3, .st5, .st7 {
        stroke: #082444;
      }

      .st4 {
        stroke: #082444;
        stroke-width: 20px;
      }

      .st11 {
        fill: #082444;
      }

      .st12, .st9 {
        fill: #082444;
      }

      .st7, .st8 {
        stroke-width: 10px;
      }

      .st13 {
        clip-path: url(#clippath);
      }
    </style>
    <clipPath id="clippath">
      <ellipse class="st4" cx="502.84" cy="406.89" rx="282.6" ry="288.42"/>
    </clipPath>
  </defs>
  <path class="st11" d="M196.12,472.94s2.81-11.25-9.98-4.78l-26.44,18.14s-48.02,33.95-72.89,73.25c-4.81,7.6-7.2,16.52-6.32,25.47.58,5.91,2.46,12.09,7.21,16.02,0,0,17.72,14.34,30.94,13.5,0,0,91.59.75,189.47-45.38l198.44-88.02c6.64-2.94,13.14-6.18,19.49-9.71l249.92-138.88,75.52-59.17s53.34-45.28,40.12-82.69c0,0-3.66-20.81-53.44-20.25,0,0-81.84,2.53-122.06,35.44l15.19,19.69s39.94-22.78,93.38-27.56c0,0,48.3-5.17,44.41,9.75-.3,1.14-.89,2.17-1.62,3.09-6.6,8.34-52.56,65.16-97.07,87.28l-9.56,10.97-181.22,104.06-176.78,85.39c-25.75,12.44-52.18,23.44-79.15,32.96l-123.76,43.66s-116.44,30.38-93.94-7.31c0,0,38.53-52.59,90.14-94.92Z"/>
  <g>
    <g class="st13">
      <path class="st7" d="M448.27,121.14c0,33.29-45.87,70.82-92.57,70.82s-84.56-26.99-84.56-60.28,37.86-60.28,84.56-60.28,92.57,16.45,92.57,49.74Z"/>
      <path class="st8" d="M522.52,132.11c-7.94,32.33-129.94,113.06-222.22,117.84-46.64,2.42-84.56-26.99-84.56-60.28s37.86-60.28,84.56-60.28,245.85-93.47,222.22,2.72Z"/>
      <path class="st0" d="M591.7,97.23c12.47,82.87-250.33,219.17-356.06,193.5-87.4-21.22-77.06-44.56-77.06-107.16s72.91-113.34,162.84-113.34,260.96-34.9,270.28,27Z"/>
      <polyline class="st1" points="224.39 430.23 269.3 430.23 337.45 333.67 466.83 354.67 532.27 241.05 591.7 205.42"/>
      <line class="st9" x1="595.45" y1="184.05" x2="623.95" y2="219.67"/>
      <path class="st1" d="M341.39,636.11s23.62,5.32,99-21.53"/>
      <line class="st9" x1="472.76" y1="602.64" x2="521.58" y2="584.64"/>
      <polyline class="st1" points="598.64 512.45 660.7 531.2 725.77 458.73"/>
      <path class="st2" d="M740.02,226.8c-.76,143.39-424.96,295.45-515.63,260.25-85.38-33.15-103.5-84.89-103.5-199.38s74.25-207.3,165.84-207.3,453.89,31.95,453.28,146.44Z"/>
      <path class="st6" d="M375.14,662.55s48,2.25,77.44-12.94"/>
      <path class="st6" d="M554.58,616.89s165.94-73.59,214.88-134.91"/>
      <path class="st3" d="M355.73,417.02c-.31,4.88,328.85-76.54,340.31-221.62"/>
      <path class="st5" d="M521.39,692.08s22.5-56.25,186.19-91.12"/>
      <circle class="st12" cx="269.3" cy="430.23" r="14.25"/>
      <circle class="st12" cx="337.45" cy="333.67" r="14.25"/>
      <circle class="st12" cx="466.83" cy="354.67" r="14.25"/>
      <circle class="st12" cx="532.27" cy="241.05" r="14.25"/>
      <circle class="st12" cx="623.95" cy="219.67" r="14.25"/>
      <circle class="st12" cx="595.45" cy="184.05" r="14.25"/>
      <circle class="st12" cx="472.76" cy="602.64" r="14.25"/>
      <circle class="st12" cx="521.58" cy="584.64" r="14.25"/>
      <circle class="st12" cx="598.64" cy="512.45" r="14.25"/>
      <circle class="st12" cx="660.7" cy="531.2" r="14.25"/>
      <circle class="st12" cx="725.77" cy="458.73" r="14.25"/>
    </g>
    <ellipse class="st4" cx="502.84" cy="406.89" rx="282.6" ry="288.42"/>
  </g>
  <path class="st10" d="M180.8,417.39s1.69-6.89-4.78-2.11c0,0-81.42,61.55-118.27,103.45,0,0-78.84,80.16-50.34,131.53,0,0,22.22,50.91,109.22,35.91,0,0,78.38-11.06,217.12-69.28,0,0,201.38-74.91,443.53-233.53,0,0,84.38-49.78,160.31-133.59,0,0,117-121.5,81.56-188.44,0,0-26.93-70.44-160.32-58.24-10.6.97-21.07,3-31.26,6.05-33.08,9.89-108.78,35.93-139.11,54.11-1.24.74-2.28,1.77-3.47,2.58-3.5,2.38-10.49,7.71-2.91,7.59,1.79-.03,3.55-.38,5.24-.97,12.92-4.51,86.84-29.68,148.22-37.18,0,0,70.12-11.62,130.12,8.62,0,0,39.38,17.25,25.88,65.25,0,0-12.94,58.59-109.12,148.59,0,0-99.56,85.5-132.75,100.69,0,0-294.75,193.03-458.44,229.97l-14.06,7.88s-168.75,64.12-217.5,47.25c0,0-57-3.38-15.38-70.5,0,0,52.99-77.5,93.59-111.28,1.78-1.48,3.46-3.07,5.06-4.74l37.85-39.61Z"/>
</svg>